<svg xmlns="http://www.w3.org/2000/svg" viewBox="0 0 64 64" fill="none">
  <defs>
    <linearGradient id="g" x1="0" y1="0" x2="1" y2="1">
      <stop offset="0" stop-color="#5cc8ff"/>
      <stop offset="1" stop-color="#a78bfa"/>
    </linearGradient>
  </defs>
  <rect x="4" y="4" width="56" height="56" rx="14" fill="#0b0c0f"/>
  <g transform="translate(10,10)">
    <g fill="url(#g)">
      <rect x="0" y="0" width="6" height="6" rx="2"/>
      <rect x="8" y="0" width="6" height="6" rx="2"/>
      <rect x="16" y="0" width="6" height="6" rx="2"/>
      <rect x="24" y="0" width="6" height="6" rx="2"/>
      <rect x="32" y="0" width="6" height="6" rx="2"/>
      <rect x="40" y="0" width="6" height="6" rx="2"/>
      <rect x="0" y="8" width="6" height="6" rx="2"/>
      <rect x="8" y="8" width="6" height="6" rx="2"/>
      <rect x="16" y="8" width="6" height="6" rx="2"/>
      <rect x="24" y="8" width="6" height="6" rx="2"/>
      <rect x="32" y="8" width="6" height="6" rx="2"/>
      <rect x="40" y="8" width="6" height="6" rx="2"/>
      <rect x="0" y="16" width="6" height="6" rx="2"/>
      <rect x="8" y="16" width="6" height="6" rx="2"/>
      <rect x="16" y="16" width="6" height="6" rx="2"/>
      <rect x="24" y="16" width="6" height="6" rx="2"/>
      <rect x="32" y="16" width="6" height="6" rx="2"/>
      <rect x="40" y="16" width="6" height="6" rx="2"/>
    </g>
  </g>
</svg>